{"title":"Hared Wife in Schoolgirl Uniform Used and Abused","uid":10796089,"size":206075733,"categoryP":"porn","categoryS":"movie_clips","magnet":"?xt=urn:btih:6f2a1f3158c28a5c2b21d02b191960c383e71075&amp;dn=Hared+Wife+in+Schoolgirl+Uniform+Used+and+Abused&amp;tr=udp%3A%2F%2Ftracker.openbittorrent.com%3A80&amp;tr=udp%3A%2F%2Fopen.demonii.com%3A1337&amp;tr=udp%3A%2F%2Ftracker.coppersurfer.tk%3A6969&amp;tr=udp%3A%2F%2Fexodus.desync.com%3A6969","seeders":0,"leechers":3,"uploader":"ThousandPeers","files":-1,"time":1408295178,"description":"Format                                   : MPEG-4\nFormat profile                           : Base Media / Version 2\nCodec ID                                 : mp42\nFile size                                : 196 MiB\nDuration                                 : 7mn 27s\nOverall bit rate mode                    : Variable\nOverall bit rate                         : 3 674 Kbps\nEncoded date                             : UTC 2013-09-18 08:00:58\nTagged date                              : UTC 2013-09-18 08:01:02\nWriting application                      : mp4creator 1.6.1d\n\nVideo\nID                                       : 1\nFormat                                   : AVC\nFormat/Info                              : Advanced Video Codec\nFormat profile                           : &lt;a class=&quot;__cf_email__&quot; href=&quot;/cdn-cgi/l/email-protection&quot; data-cfemail=&quot;eea6878986aea2ddc0de&quot;&gt;[email&amp;#160;protected]&lt;/a&gt;&lt;script cf-hash='f9e31' type=&quot;text/javascript&quot;&gt;\n/* &lt;![CDATA[ */!function(){try{var t=&quot;currentScript&quot;in document?document.currentScript:function(){for(var t=document.getElementsByTagName(&quot;script&quot;),e=t.length;e--;)if(t[e].getAttribute(&quot;cf-hash&quot;))return t[e]}();if(t&amp;&amp;t.previousSibling){var e,r,n,i,c=t.previousSibling,a=c.getAttribute(&quot;data-cfemail&quot;);if(a){for(e=&quot;&quot;,r=parseInt(a.substr(0,2),16),n=2;a.length-n;n+=2)i=parseInt(a.substr(n,2),16)^r,e+=String.fromCharCode(i);e=document.createTextNode(e),c.parentNode.replaceChild(e,c)}}}catch(u){}}();/* ]]&gt; */&lt;/script&gt;\nFormat settings, CABAC                   : No\nFormat settings, ReFrames                : 1 frame\nCodec ID                                 : avc1\nCodec ID/Info                            : Advanced Video Coding\nDuration                                 : 7mn 27s\nBit rate mode                            : Variable\nBit rate                                 : 3 483 Kbps\nWidth                                    : 720 pixels\nHeight                                   : 480 pixels\nDisplay aspect ratio                     : 3:2\nFrame rate mode                          : Constant\nFrame rate                               : 30.000 fps\nStandard                                 : NTSC\nColor space                              : YUV\nChroma subsampling                       : 4:2:0\nBit depth                                : 8 bits\nScan type                                : Progressive\nBits/(Pixel*Frame)                       : 0.336\nStream size                              : 186 MiB (95%)\nLanguage                                 : English\nEncoded date                             : UTC 2013-09-18 08:00:58\nTagged date                              : UTC 2013-09-18 08:01:01\n\nAudio\nID                                       : 2\nFormat                                   : AAC\nFormat/Info                              : Advanced Audio Codec\nFormat profile                           : LC\nCodec ID                                 : 40\nDuration                                 : 7mn 26s\nBit rate mode                            : Variable\nBit rate                                 : 192 Kbps\nMaximum bit rate                         : 204 Kbps\nChannel(s)                               : 2 channels\nChannel positions                        : Front: L R\nSampling rate                            : 48.0 KHz\nCompression mode                         : Lossy\nStream size                              : 10.1 MiB (5%)\nLanguage                                 : English\nEncoded date                             : UTC 2013-09-18 08:01:01\nTagged date                              : UTC 2013-09-18 08:01:02\n","torrent":{"xt":"urn:btih:6f2a1f3158c28a5c2b21d02b191960c383e71075","amp;dn":"Hared+Wife+in+Schoolgirl+Uniform+Used+and+Abused","amp;tr":["udp%3A%2F%2Ftracker.openbittorrent.com%3A80","udp%3A%2F%2Fopen.demonii.com%3A1337","udp%3A%2F%2Ftracker.coppersurfer.tk%3A6969","udp%3A%2F%2Fexodus.desync.com%3A6969"],"infoHash":"6f2a1f3158c28a5c2b21d02b191960c383e71075","infoHashBuffer":{"type":"Buffer","data":[111,42,31,49,88,194,138,92,43,33,208,43,25,25,96,195,131,231,16,117]},"announce":[],"urlList":[]}}